#N canvas -8 0 882 966 12;
#X msg 81 72 open sound.wav;
#X obj 41 213 dac~;
#X msg 62 35 1;
#X msg 20 52 0;
#X obj 40 143 readsf~;
#X obj 227 238 dac~;
#X msg 248 60 1;
#X msg 206 77 0;
#X obj 226 168 readsf~;
#X obj 295 52 openpanel;
#X msg 295 94 open \$1;
#X obj 295 19 bng 15 250 50 0 empty empty empty 17 7 0 10 -262144 -1
-1;
#X obj 443 65 soundfiler;
#X floatatom 443 109 5 0 0 0 - - -;
#X obj 412 170 expr 44100/$f1;
#X text 515 102 이거 걍 외우는 거임, f 17;
#X obj 412 244 phasor~;
#X obj 491 316 *~;
#X obj 491 351 tabread4~ soundData;
#X obj 491 392 dac~;
#X msg 357 171 0;
#X obj 528 207 hsl 128 15 0 0.01 0 0 empty empty empty -2 -8 0 10 -262144
-1 -1 5800 1;
#X msg 443 21 read -resize sound.wav soundData;
#X floatatom 525 245 5 0 0 0 - - -;
#N canvas 0 50 450 250 (subpatch) 0;
#X array soundData 1.2373e+007 float 2;
#X coords 0 1 1.2373e+007 -1 200 140 1;
#X restore 671 86 graph;
#X connect 0 0 4 0;
#X connect 2 0 4 0;
#X connect 3 0 4 0;
#X connect 4 0 1 0;
#X connect 4 0 1 1;
#X connect 6 0 8 0;
#X connect 7 0 8 0;
#X connect 8 0 5 0;
#X connect 8 0 5 1;
#X connect 9 0 10 0;
#X connect 10 0 8 0;
#X connect 11 0 9 0;
#X connect 12 0 13 0;
#X connect 13 0 14 0;
#X connect 13 0 17 1;
#X connect 14 0 16 0;
#X connect 16 0 17 0;
#X connect 17 0 18 0;
#X connect 18 0 19 0;
#X connect 20 0 16 0;
#X connect 21 0 16 0;
#X connect 21 0 23 0;
#X connect 22 0 12 0;
